<mxfile host="app.diagrams.net" modified="2021-10-20T15:20:27.699Z" agent="5.0 (Windows NT 10.0; Win64; x64) AppleWebKit/537.36 (KHTML, like Gecko) Chrome/92.0.4515.107 Safari/537.36" etag="OK53FjPxH-E7igKoaXVV" version="15.5.6" type="github">
  <diagram id="u0_twf8YNsRj_HJE-j4O" name="Page-1">
    <mxGraphModel dx="2029" dy="796" grid="1" gridSize="10" guides="1" tooltips="1" connect="1" arrows="1" fold="1" page="0" pageScale="1" pageWidth="827" pageHeight="1169" math="0" shadow="0">
      <root>
        <mxCell id="0" />
        <mxCell id="1" parent="0" />
        <mxCell id="g4sBY3vQFwJTmv0VMaXS-16" style="edgeStyle=orthogonalEdgeStyle;rounded=0;orthogonalLoop=1;jettySize=auto;html=1;exitX=1;exitY=0.3333333333333333;exitDx=0;exitDy=0;exitPerimeter=0;entryX=0;entryY=0.5;entryDx=0;entryDy=0;" parent="1" source="g4sBY3vQFwJTmv0VMaXS-1" target="g4sBY3vQFwJTmv0VMaXS-15" edge="1">
          <mxGeometry relative="1" as="geometry" />
        </mxCell>
        <mxCell id="g4sBY3vQFwJTmv0VMaXS-1" value="主播" style="shape=umlActor;verticalLabelPosition=bottom;verticalAlign=top;html=1;outlineConnect=0;" parent="1" vertex="1">
          <mxGeometry x="160" y="200" width="30" height="60" as="geometry" />
        </mxCell>
        <mxCell id="g4sBY3vQFwJTmv0VMaXS-10" value="1.呼叫接口" style="edgeStyle=orthogonalEdgeStyle;rounded=0;orthogonalLoop=1;jettySize=auto;html=1;exitX=0.5;exitY=0.5;exitDx=0;exitDy=0;exitPerimeter=0;entryX=1;entryY=0.5;entryDx=0;entryDy=0;" parent="1" source="g4sBY3vQFwJTmv0VMaXS-2" target="g4sBY3vQFwJTmv0VMaXS-4" edge="1">
          <mxGeometry relative="1" as="geometry" />
        </mxCell>
        <mxCell id="g4sBY3vQFwJTmv0VMaXS-2" value="用户A" style="shape=umlActor;verticalLabelPosition=bottom;verticalAlign=top;html=1;outlineConnect=0;" parent="1" vertex="1">
          <mxGeometry x="690" y="200" width="30" height="60" as="geometry" />
        </mxCell>
        <mxCell id="g4sBY3vQFwJTmv0VMaXS-11" value="" style="edgeStyle=orthogonalEdgeStyle;rounded=0;orthogonalLoop=1;jettySize=auto;html=1;exitX=0.5;exitY=1;exitDx=0;exitDy=0;" parent="1" source="g4sBY3vQFwJTmv0VMaXS-4" target="g4sBY3vQFwJTmv0VMaXS-7" edge="1">
          <mxGeometry relative="1" as="geometry" />
        </mxCell>
        <mxCell id="g4sBY3vQFwJTmv0VMaXS-12" value="2.消息发送接口" style="edgeLabel;html=1;align=center;verticalAlign=middle;resizable=0;points=[];" parent="g4sBY3vQFwJTmv0VMaXS-11" vertex="1" connectable="0">
          <mxGeometry x="0.1355" relative="1" as="geometry">
            <mxPoint as="offset" />
          </mxGeometry>
        </mxCell>
        <mxCell id="g4sBY3vQFwJTmv0VMaXS-25" style="edgeStyle=orthogonalEdgeStyle;rounded=0;orthogonalLoop=1;jettySize=auto;html=1;exitX=0.75;exitY=1;exitDx=0;exitDy=0;entryX=0;entryY=0.5;entryDx=0;entryDy=0;entryPerimeter=0;" parent="1" source="g4sBY3vQFwJTmv0VMaXS-4" target="g4sBY3vQFwJTmv0VMaXS-5" edge="1">
          <mxGeometry relative="1" as="geometry">
            <Array as="points">
              <mxPoint x="469" y="320" />
              <mxPoint x="590" y="320" />
              <mxPoint x="590" y="437" />
            </Array>
          </mxGeometry>
        </mxCell>
        <mxCell id="g4sBY3vQFwJTmv0VMaXS-26" value="5.调用深网创建房间" style="edgeLabel;html=1;align=center;verticalAlign=middle;resizable=0;points=[];" parent="g4sBY3vQFwJTmv0VMaXS-25" vertex="1" connectable="0">
          <mxGeometry x="-0.4547" y="-1" relative="1" as="geometry">
            <mxPoint x="73" y="59" as="offset" />
          </mxGeometry>
        </mxCell>
        <mxCell id="g4sBY3vQFwJTmv0VMaXS-4" value="服务端" style="aspect=fixed;perimeter=ellipsePerimeter;html=1;align=center;shadow=0;dashed=0;spacingTop=3;image;image=img/lib/active_directory/web_server.svg;" parent="1" vertex="1">
          <mxGeometry x="440" y="205" width="40" height="50" as="geometry" />
        </mxCell>
        <mxCell id="g4sBY3vQFwJTmv0VMaXS-27" style="edgeStyle=orthogonalEdgeStyle;rounded=0;orthogonalLoop=1;jettySize=auto;html=1;exitX=0.145;exitY=0.145;exitDx=0;exitDy=0;exitPerimeter=0;entryX=1;entryY=1;entryDx=0;entryDy=0;" parent="1" source="g4sBY3vQFwJTmv0VMaXS-5" target="g4sBY3vQFwJTmv0VMaXS-4" edge="1">
          <mxGeometry relative="1" as="geometry">
            <Array as="points">
              <mxPoint x="600" y="422" />
              <mxPoint x="600" y="310" />
              <mxPoint x="474" y="310" />
            </Array>
          </mxGeometry>
        </mxCell>
        <mxCell id="g4sBY3vQFwJTmv0VMaXS-5" value="深网" style="fillColor=#28A8E0;verticalLabelPosition=bottom;sketch=0;html=1;strokeColor=#ffffff;verticalAlign=top;align=center;points=[[0.145,0.145,0],[0.5,0,0],[0.855,0.145,0],[1,0.5,0],[0.855,0.855,0],[0.5,1,0],[0.145,0.855,0],[0,0.5,0]];pointerEvents=1;shape=mxgraph.cisco_safe.compositeIcon;bgIcon=ellipse;resIcon=mxgraph.cisco_safe.capability.video;" parent="1" vertex="1">
          <mxGeometry x="710" y="415.5" width="43" height="43" as="geometry" />
        </mxCell>
        <mxCell id="g4sBY3vQFwJTmv0VMaXS-13" style="edgeStyle=orthogonalEdgeStyle;rounded=0;orthogonalLoop=1;jettySize=auto;html=1;" parent="1" source="g4sBY3vQFwJTmv0VMaXS-7" target="g4sBY3vQFwJTmv0VMaXS-1" edge="1">
          <mxGeometry relative="1" as="geometry" />
        </mxCell>
        <mxCell id="g4sBY3vQFwJTmv0VMaXS-14" value="3.WS通知" style="edgeLabel;html=1;align=center;verticalAlign=middle;resizable=0;points=[];" parent="g4sBY3vQFwJTmv0VMaXS-13" vertex="1" connectable="0">
          <mxGeometry x="-0.2673" relative="1" as="geometry">
            <mxPoint as="offset" />
          </mxGeometry>
        </mxCell>
        <mxCell id="g4sBY3vQFwJTmv0VMaXS-7" value="IM" style="sketch=0;pointerEvents=1;shadow=0;dashed=0;html=1;strokeColor=none;fillColor=#505050;labelPosition=center;verticalLabelPosition=bottom;verticalAlign=top;outlineConnect=0;align=center;shape=mxgraph.office.communications.im_workload;" parent="1" vertex="1">
          <mxGeometry x="432" y="410" width="56" height="54" as="geometry" />
        </mxCell>
        <mxCell id="g4sBY3vQFwJTmv0VMaXS-8" value="用户B" style="shape=umlActor;verticalLabelPosition=bottom;verticalAlign=top;html=1;outlineConnect=0;" parent="1" vertex="1">
          <mxGeometry x="800" y="200" width="30" height="60" as="geometry" />
        </mxCell>
        <mxCell id="g4sBY3vQFwJTmv0VMaXS-19" style="edgeStyle=orthogonalEdgeStyle;rounded=0;orthogonalLoop=1;jettySize=auto;html=1;exitX=1;exitY=0.5;exitDx=0;exitDy=0;entryX=0.5;entryY=0;entryDx=0;entryDy=0;" parent="1" source="g4sBY3vQFwJTmv0VMaXS-15" target="g4sBY3vQFwJTmv0VMaXS-4" edge="1">
          <mxGeometry relative="1" as="geometry" />
        </mxCell>
        <mxCell id="g4sBY3vQFwJTmv0VMaXS-20" value="4.接受" style="edgeLabel;html=1;align=center;verticalAlign=middle;resizable=0;points=[];" parent="g4sBY3vQFwJTmv0VMaXS-19" vertex="1" connectable="0">
          <mxGeometry x="-0.0578" relative="1" as="geometry">
            <mxPoint as="offset" />
          </mxGeometry>
        </mxCell>
        <mxCell id="g4sBY3vQFwJTmv0VMaXS-22" style="edgeStyle=orthogonalEdgeStyle;rounded=0;orthogonalLoop=1;jettySize=auto;html=1;exitX=0.5;exitY=1;exitDx=0;exitDy=0;entryX=0;entryY=0.5;entryDx=0;entryDy=0;" parent="1" source="g4sBY3vQFwJTmv0VMaXS-15" target="g4sBY3vQFwJTmv0VMaXS-4" edge="1">
          <mxGeometry relative="1" as="geometry" />
        </mxCell>
        <mxCell id="g4sBY3vQFwJTmv0VMaXS-23" value="4.1&amp;nbsp;拒绝" style="edgeLabel;html=1;align=center;verticalAlign=middle;resizable=0;points=[];" parent="g4sBY3vQFwJTmv0VMaXS-22" vertex="1" connectable="0">
          <mxGeometry x="-0.0261" relative="1" as="geometry">
            <mxPoint as="offset" />
          </mxGeometry>
        </mxCell>
        <mxCell id="g4sBY3vQFwJTmv0VMaXS-15" value="应答" style="rhombus;whiteSpace=wrap;html=1;" parent="1" vertex="1">
          <mxGeometry x="260" y="60" width="80" height="80" as="geometry" />
        </mxCell>
        <mxCell id="g4sBY3vQFwJTmv0VMaXS-18" value="1.1记录呼叫信息" style="text;html=1;strokeColor=none;fillColor=none;align=center;verticalAlign=middle;whiteSpace=wrap;rounded=0;" parent="1" vertex="1">
          <mxGeometry x="560" y="180" width="100" height="30" as="geometry" />
        </mxCell>
        <mxCell id="g4sBY3vQFwJTmv0VMaXS-29" value="Pool" style="swimlane;childLayout=stackLayout;resizeParent=1;resizeParentMax=0;startSize=20;horizontal=0;horizontalStack=1;strokeColor=#E6E6E6;dashed=1;dashPattern=1 1;" parent="1" vertex="1">
          <mxGeometry x="200" y="720" width="790" height="1110" as="geometry" />
        </mxCell>
        <mxCell id="g4sBY3vQFwJTmv0VMaXS-30" value="主播" style="swimlane;startSize=20;strokeColor=#808080;dashed=1;dashPattern=1 1;" parent="g4sBY3vQFwJTmv0VMaXS-29" vertex="1">
          <mxGeometry x="20" width="120" height="1110" as="geometry" />
        </mxCell>
        <mxCell id="g4sBY3vQFwJTmv0VMaXS-46" value="主播" style="shape=umlActor;verticalLabelPosition=bottom;verticalAlign=top;html=1;outlineConnect=0;" parent="g4sBY3vQFwJTmv0VMaXS-30" vertex="1">
          <mxGeometry x="45" y="160" width="30" height="60" as="geometry" />
        </mxCell>
        <mxCell id="bjaMCamKSF5sM4Zxcl0b-12" style="edgeStyle=orthogonalEdgeStyle;rounded=0;orthogonalLoop=1;jettySize=auto;html=1;exitX=0.5;exitY=1;exitDx=0;exitDy=0;" edge="1" parent="g4sBY3vQFwJTmv0VMaXS-30" source="bjaMCamKSF5sM4Zxcl0b-6" target="bjaMCamKSF5sM4Zxcl0b-10">
          <mxGeometry relative="1" as="geometry" />
        </mxCell>
        <mxCell id="bjaMCamKSF5sM4Zxcl0b-6" value="发起频道创建" style="rounded=0;whiteSpace=wrap;html=1;" vertex="1" parent="g4sBY3vQFwJTmv0VMaXS-30">
          <mxGeometry x="15" y="520" width="90" height="40" as="geometry" />
        </mxCell>
        <mxCell id="bjaMCamKSF5sM4Zxcl0b-13" style="edgeStyle=orthogonalEdgeStyle;rounded=0;orthogonalLoop=1;jettySize=auto;html=1;exitX=0.5;exitY=1;exitDx=0;exitDy=0;" edge="1" parent="g4sBY3vQFwJTmv0VMaXS-30" source="bjaMCamKSF5sM4Zxcl0b-10" target="bjaMCamKSF5sM4Zxcl0b-11">
          <mxGeometry relative="1" as="geometry" />
        </mxCell>
        <mxCell id="bjaMCamKSF5sM4Zxcl0b-10" value="初始RTC" style="rounded=0;whiteSpace=wrap;html=1;" vertex="1" parent="g4sBY3vQFwJTmv0VMaXS-30">
          <mxGeometry x="15" y="600" width="90" height="40" as="geometry" />
        </mxCell>
        <mxCell id="bjaMCamKSF5sM4Zxcl0b-11" value="设置本地视图" style="rounded=0;whiteSpace=wrap;html=1;" vertex="1" parent="g4sBY3vQFwJTmv0VMaXS-30">
          <mxGeometry x="15" y="680" width="90" height="40" as="geometry" />
        </mxCell>
        <mxCell id="g4sBY3vQFwJTmv0VMaXS-31" value="客服" style="swimlane;startSize=20;strokeColor=#808080;dashed=1;dashPattern=1 1;" parent="g4sBY3vQFwJTmv0VMaXS-29" vertex="1">
          <mxGeometry x="140" width="120" height="1110" as="geometry" />
        </mxCell>
        <mxCell id="g4sBY3vQFwJTmv0VMaXS-40" value="用户A" style="shape=umlActor;verticalLabelPosition=bottom;verticalAlign=top;html=1;outlineConnect=0;" parent="g4sBY3vQFwJTmv0VMaXS-31" vertex="1">
          <mxGeometry x="40" y="40" width="30" height="60" as="geometry" />
        </mxCell>
        <mxCell id="g4sBY3vQFwJTmv0VMaXS-32" value="服务端" style="swimlane;startSize=20;strokeColor=#808080;dashed=1;dashPattern=1 1;" parent="g4sBY3vQFwJTmv0VMaXS-29" vertex="1">
          <mxGeometry x="260" width="170" height="1110" as="geometry" />
        </mxCell>
        <mxCell id="g4sBY3vQFwJTmv0VMaXS-42" value="呼叫接口" style="rounded=0;whiteSpace=wrap;html=1;" parent="g4sBY3vQFwJTmv0VMaXS-32" vertex="1">
          <mxGeometry x="40" y="40" width="90" height="40" as="geometry" />
        </mxCell>
        <mxCell id="g4sBY3vQFwJTmv0VMaXS-54" style="edgeStyle=orthogonalEdgeStyle;rounded=0;orthogonalLoop=1;jettySize=auto;html=1;exitX=0.5;exitY=1;exitDx=0;exitDy=0;entryX=0.5;entryY=0;entryDx=0;entryDy=0;" parent="g4sBY3vQFwJTmv0VMaXS-32" source="g4sBY3vQFwJTmv0VMaXS-49" target="g4sBY3vQFwJTmv0VMaXS-55" edge="1">
          <mxGeometry relative="1" as="geometry">
            <mxPoint x="85" y="270" as="targetPoint" />
          </mxGeometry>
        </mxCell>
        <mxCell id="g4sBY3vQFwJTmv0VMaXS-49" value="应答" style="rounded=0;whiteSpace=wrap;html=1;" parent="g4sBY3vQFwJTmv0VMaXS-32" vertex="1">
          <mxGeometry x="40" y="200" width="90" height="40" as="geometry" />
        </mxCell>
        <mxCell id="g4sBY3vQFwJTmv0VMaXS-55" value="余额检测" style="rhombus;whiteSpace=wrap;html=1;" parent="g4sBY3vQFwJTmv0VMaXS-32" vertex="1">
          <mxGeometry x="45" y="290" width="80" height="80" as="geometry" />
        </mxCell>
        <mxCell id="g4sBY3vQFwJTmv0VMaXS-66" value="初始房间信息&lt;br&gt;MySQL持久" style="rounded=0;whiteSpace=wrap;html=1;" parent="g4sBY3vQFwJTmv0VMaXS-32" vertex="1">
          <mxGeometry x="42.5" y="430" width="85" height="40" as="geometry" />
        </mxCell>
        <mxCell id="bjaMCamKSF5sM4Zxcl0b-1" style="edgeStyle=orthogonalEdgeStyle;rounded=0;orthogonalLoop=1;jettySize=auto;html=1;exitX=0.5;exitY=1;exitDx=0;exitDy=0;" edge="1" parent="g4sBY3vQFwJTmv0VMaXS-32" source="g4sBY3vQFwJTmv0VMaXS-55" target="g4sBY3vQFwJTmv0VMaXS-66">
          <mxGeometry relative="1" as="geometry">
            <mxPoint x="85.28571428571422" y="470" as="targetPoint" />
          </mxGeometry>
        </mxCell>
        <mxCell id="bjaMCamKSF5sM4Zxcl0b-2" value="充足" style="edgeLabel;html=1;align=center;verticalAlign=middle;resizable=0;points=[];" vertex="1" connectable="0" parent="bjaMCamKSF5sM4Zxcl0b-1">
          <mxGeometry x="-0.1425" y="-1" relative="1" as="geometry">
            <mxPoint as="offset" />
          </mxGeometry>
        </mxCell>
        <mxCell id="bjaMCamKSF5sM4Zxcl0b-32" style="edgeStyle=orthogonalEdgeStyle;rounded=0;orthogonalLoop=1;jettySize=auto;html=1;exitX=0.5;exitY=1;exitDx=0;exitDy=0;entryX=0.5;entryY=0;entryDx=0;entryDy=0;dashed=1;" edge="1" parent="g4sBY3vQFwJTmv0VMaXS-32" source="bjaMCamKSF5sM4Zxcl0b-24" target="bjaMCamKSF5sM4Zxcl0b-31">
          <mxGeometry relative="1" as="geometry" />
        </mxCell>
        <mxCell id="bjaMCamKSF5sM4Zxcl0b-24" value="变更房间状态" style="rounded=0;whiteSpace=wrap;html=1;" vertex="1" parent="g4sBY3vQFwJTmv0VMaXS-32">
          <mxGeometry x="40" y="780" width="85" height="40" as="geometry" />
        </mxCell>
        <mxCell id="bjaMCamKSF5sM4Zxcl0b-28" value="加入Redis" style="rounded=0;whiteSpace=wrap;html=1;" vertex="1" parent="g4sBY3vQFwJTmv0VMaXS-32">
          <mxGeometry x="42.5" y="520" width="85" height="40" as="geometry" />
        </mxCell>
        <mxCell id="bjaMCamKSF5sM4Zxcl0b-26" style="edgeStyle=orthogonalEdgeStyle;rounded=0;orthogonalLoop=1;jettySize=auto;html=1;exitX=0.5;exitY=1;exitDx=0;exitDy=0;dashed=1;" edge="1" parent="g4sBY3vQFwJTmv0VMaXS-32" source="g4sBY3vQFwJTmv0VMaXS-66" target="bjaMCamKSF5sM4Zxcl0b-28">
          <mxGeometry relative="1" as="geometry">
            <mxPoint x="84.79310344827582" y="560" as="targetPoint" />
          </mxGeometry>
        </mxCell>
        <mxCell id="bjaMCamKSF5sM4Zxcl0b-30" value="" style="edgeStyle=orthogonalEdgeStyle;rounded=0;orthogonalLoop=1;jettySize=auto;html=1;dashed=1;" edge="1" parent="g4sBY3vQFwJTmv0VMaXS-32" source="bjaMCamKSF5sM4Zxcl0b-29" target="bjaMCamKSF5sM4Zxcl0b-28">
          <mxGeometry relative="1" as="geometry" />
        </mxCell>
        <mxCell id="bjaMCamKSF5sM4Zxcl0b-29" value="协程检测超时房间" style="rounded=0;whiteSpace=wrap;html=1;" vertex="1" parent="g4sBY3vQFwJTmv0VMaXS-32">
          <mxGeometry x="42.5" y="610" width="85" height="40" as="geometry" />
        </mxCell>
        <mxCell id="bjaMCamKSF5sM4Zxcl0b-34" style="edgeStyle=orthogonalEdgeStyle;rounded=0;orthogonalLoop=1;jettySize=auto;html=1;exitX=0.5;exitY=1;exitDx=0;exitDy=0;dashed=1;" edge="1" parent="g4sBY3vQFwJTmv0VMaXS-32" source="bjaMCamKSF5sM4Zxcl0b-31" target="bjaMCamKSF5sM4Zxcl0b-33">
          <mxGeometry relative="1" as="geometry" />
        </mxCell>
        <mxCell id="bjaMCamKSF5sM4Zxcl0b-31" value="清除Redis" style="rounded=0;whiteSpace=wrap;html=1;" vertex="1" parent="g4sBY3vQFwJTmv0VMaXS-32">
          <mxGeometry x="40" y="850" width="85" height="40" as="geometry" />
        </mxCell>
        <mxCell id="bjaMCamKSF5sM4Zxcl0b-33" value="更新MySQL" style="rounded=0;whiteSpace=wrap;html=1;" vertex="1" parent="g4sBY3vQFwJTmv0VMaXS-32">
          <mxGeometry x="40" y="920" width="85" height="40" as="geometry" />
        </mxCell>
        <mxCell id="g4sBY3vQFwJTmv0VMaXS-38" value="IM" style="swimlane;startSize=20;strokeColor=#808080;dashed=1;dashPattern=1 1;" parent="g4sBY3vQFwJTmv0VMaXS-29" vertex="1">
          <mxGeometry x="430" width="240" height="1110" as="geometry" />
        </mxCell>
        <mxCell id="g4sBY3vQFwJTmv0VMaXS-45" value="消息发送接口" style="rounded=0;whiteSpace=wrap;html=1;" parent="g4sBY3vQFwJTmv0VMaXS-38" vertex="1">
          <mxGeometry x="50" y="40" width="90" height="40" as="geometry" />
        </mxCell>
        <mxCell id="g4sBY3vQFwJTmv0VMaXS-57" value="消息发送接口" style="rounded=0;whiteSpace=wrap;html=1;" parent="g4sBY3vQFwJTmv0VMaXS-38" vertex="1">
          <mxGeometry x="40" y="310" width="90" height="40" as="geometry" />
        </mxCell>
        <mxCell id="bjaMCamKSF5sM4Zxcl0b-4" value="消息发送接口" style="rounded=0;whiteSpace=wrap;html=1;" vertex="1" parent="g4sBY3vQFwJTmv0VMaXS-38">
          <mxGeometry x="50" y="430" width="90" height="40" as="geometry" />
        </mxCell>
        <mxCell id="g4sBY3vQFwJTmv0VMaXS-39" value="深网" style="swimlane;startSize=20;strokeColor=#808080;dashed=1;dashPattern=1 1;" parent="g4sBY3vQFwJTmv0VMaXS-29" vertex="1">
          <mxGeometry x="670" width="120" height="1110" as="geometry" />
        </mxCell>
        <mxCell id="bjaMCamKSF5sM4Zxcl0b-7" value="加入频道" style="rounded=0;whiteSpace=wrap;html=1;" vertex="1" parent="g4sBY3vQFwJTmv0VMaXS-39">
          <mxGeometry x="15" y="740" width="90" height="40" as="geometry" />
        </mxCell>
        <mxCell id="g4sBY3vQFwJTmv0VMaXS-41" style="edgeStyle=orthogonalEdgeStyle;rounded=0;orthogonalLoop=1;jettySize=auto;html=1;exitX=1;exitY=0.3333333333333333;exitDx=0;exitDy=0;exitPerimeter=0;entryX=0;entryY=0.5;entryDx=0;entryDy=0;" parent="g4sBY3vQFwJTmv0VMaXS-29" source="g4sBY3vQFwJTmv0VMaXS-40" target="g4sBY3vQFwJTmv0VMaXS-42" edge="1">
          <mxGeometry relative="1" as="geometry">
            <mxPoint x="290" y="70.14285714285711" as="targetPoint" />
          </mxGeometry>
        </mxCell>
        <mxCell id="g4sBY3vQFwJTmv0VMaXS-44" style="edgeStyle=orthogonalEdgeStyle;rounded=0;orthogonalLoop=1;jettySize=auto;html=1;exitX=1;exitY=0.5;exitDx=0;exitDy=0;entryX=0;entryY=0.5;entryDx=0;entryDy=0;" parent="g4sBY3vQFwJTmv0VMaXS-29" source="g4sBY3vQFwJTmv0VMaXS-42" target="g4sBY3vQFwJTmv0VMaXS-45" edge="1">
          <mxGeometry relative="1" as="geometry">
            <mxPoint x="470" y="59.85714285714289" as="targetPoint" />
          </mxGeometry>
        </mxCell>
        <mxCell id="g4sBY3vQFwJTmv0VMaXS-47" style="edgeStyle=orthogonalEdgeStyle;rounded=0;orthogonalLoop=1;jettySize=auto;html=1;exitX=1;exitY=0.5;exitDx=0;exitDy=0;entryX=1;entryY=0.3333333333333333;entryDx=0;entryDy=0;entryPerimeter=0;" parent="g4sBY3vQFwJTmv0VMaXS-29" source="g4sBY3vQFwJTmv0VMaXS-45" target="g4sBY3vQFwJTmv0VMaXS-46" edge="1">
          <mxGeometry relative="1" as="geometry" />
        </mxCell>
        <mxCell id="g4sBY3vQFwJTmv0VMaXS-48" style="edgeStyle=orthogonalEdgeStyle;rounded=0;orthogonalLoop=1;jettySize=auto;html=1;exitX=1;exitY=1;exitDx=0;exitDy=0;exitPerimeter=0;entryX=0;entryY=0.5;entryDx=0;entryDy=0;" parent="g4sBY3vQFwJTmv0VMaXS-29" source="g4sBY3vQFwJTmv0VMaXS-46" target="g4sBY3vQFwJTmv0VMaXS-49" edge="1">
          <mxGeometry relative="1" as="geometry">
            <mxPoint x="290" y="219.8571428571429" as="targetPoint" />
            <Array as="points">
              <mxPoint x="170" y="220" />
              <mxPoint x="170" y="220" />
            </Array>
          </mxGeometry>
        </mxCell>
        <mxCell id="g4sBY3vQFwJTmv0VMaXS-58" value="不足" style="edgeStyle=orthogonalEdgeStyle;rounded=0;orthogonalLoop=1;jettySize=auto;html=1;exitX=1;exitY=0.5;exitDx=0;exitDy=0;" parent="g4sBY3vQFwJTmv0VMaXS-29" source="g4sBY3vQFwJTmv0VMaXS-55" target="g4sBY3vQFwJTmv0VMaXS-57" edge="1">
          <mxGeometry relative="1" as="geometry" />
        </mxCell>
        <mxCell id="g4sBY3vQFwJTmv0VMaXS-59" style="edgeStyle=orthogonalEdgeStyle;rounded=0;orthogonalLoop=1;jettySize=auto;html=1;exitX=0.5;exitY=0;exitDx=0;exitDy=0;entryX=1;entryY=1;entryDx=0;entryDy=0;entryPerimeter=0;" parent="g4sBY3vQFwJTmv0VMaXS-29" source="g4sBY3vQFwJTmv0VMaXS-57" target="g4sBY3vQFwJTmv0VMaXS-40" edge="1">
          <mxGeometry relative="1" as="geometry">
            <Array as="points">
              <mxPoint x="515" y="100" />
            </Array>
          </mxGeometry>
        </mxCell>
        <mxCell id="g4sBY3vQFwJTmv0VMaXS-60" value="提醒用户充值" style="edgeLabel;html=1;align=center;verticalAlign=middle;resizable=0;points=[];" parent="g4sBY3vQFwJTmv0VMaXS-59" vertex="1" connectable="0">
          <mxGeometry x="-0.6375" y="-2" relative="1" as="geometry">
            <mxPoint as="offset" />
          </mxGeometry>
        </mxCell>
        <mxCell id="bjaMCamKSF5sM4Zxcl0b-5" style="edgeStyle=orthogonalEdgeStyle;rounded=0;orthogonalLoop=1;jettySize=auto;html=1;exitX=0.5;exitY=1;exitDx=0;exitDy=0;entryX=0.5;entryY=0;entryDx=0;entryDy=0;" edge="1" parent="g4sBY3vQFwJTmv0VMaXS-29" source="bjaMCamKSF5sM4Zxcl0b-4" target="bjaMCamKSF5sM4Zxcl0b-6">
          <mxGeometry relative="1" as="geometry">
            <mxPoint x="525.2857142857142" y="550" as="targetPoint" />
            <Array as="points">
              <mxPoint x="525" y="490" />
              <mxPoint x="80" y="490" />
            </Array>
          </mxGeometry>
        </mxCell>
        <mxCell id="bjaMCamKSF5sM4Zxcl0b-8" style="edgeStyle=orthogonalEdgeStyle;rounded=0;orthogonalLoop=1;jettySize=auto;html=1;exitX=0.5;exitY=1;exitDx=0;exitDy=0;entryX=0;entryY=0.5;entryDx=0;entryDy=0;" edge="1" parent="g4sBY3vQFwJTmv0VMaXS-29" source="bjaMCamKSF5sM4Zxcl0b-11" target="bjaMCamKSF5sM4Zxcl0b-7">
          <mxGeometry relative="1" as="geometry">
            <Array as="points">
              <mxPoint x="80" y="760" />
            </Array>
          </mxGeometry>
        </mxCell>
        <mxCell id="bjaMCamKSF5sM4Zxcl0b-3" style="edgeStyle=orthogonalEdgeStyle;rounded=0;orthogonalLoop=1;jettySize=auto;html=1;exitX=1;exitY=0.5;exitDx=0;exitDy=0;entryX=0;entryY=0.5;entryDx=0;entryDy=0;" edge="1" parent="g4sBY3vQFwJTmv0VMaXS-29" source="g4sBY3vQFwJTmv0VMaXS-66" target="bjaMCamKSF5sM4Zxcl0b-4">
          <mxGeometry relative="1" as="geometry">
            <mxPoint x="480" y="510.1428571428571" as="targetPoint" />
            <Array as="points" />
          </mxGeometry>
        </mxCell>
        <mxCell id="bjaMCamKSF5sM4Zxcl0b-23" style="edgeStyle=orthogonalEdgeStyle;rounded=0;orthogonalLoop=1;jettySize=auto;html=1;exitX=0.5;exitY=1;exitDx=0;exitDy=0;entryX=1;entryY=0.5;entryDx=0;entryDy=0;dashed=1;" edge="1" parent="g4sBY3vQFwJTmv0VMaXS-29" source="bjaMCamKSF5sM4Zxcl0b-7" target="bjaMCamKSF5sM4Zxcl0b-24">
          <mxGeometry relative="1" as="geometry">
            <mxPoint x="390" y="800" as="targetPoint" />
            <Array as="points">
              <mxPoint x="730" y="800" />
            </Array>
          </mxGeometry>
        </mxCell>
        <mxCell id="bjaMCamKSF5sM4Zxcl0b-25" value="异步回调" style="edgeLabel;html=1;align=center;verticalAlign=middle;resizable=0;points=[];" vertex="1" connectable="0" parent="bjaMCamKSF5sM4Zxcl0b-23">
          <mxGeometry x="0.0981" y="-1" relative="1" as="geometry">
            <mxPoint as="offset" />
          </mxGeometry>
        </mxCell>
        <mxCell id="bjaMCamKSF5sM4Zxcl0b-14" value="" style="endArrow=classic;html=1;rounded=0;" edge="1" parent="1">
          <mxGeometry width="50" height="50" relative="1" as="geometry">
            <mxPoint x="240" y="1960" as="sourcePoint" />
            <mxPoint x="1160" y="1960" as="targetPoint" />
          </mxGeometry>
        </mxCell>
        <mxCell id="bjaMCamKSF5sM4Zxcl0b-15" value="用户A加入" style="text;html=1;strokeColor=none;fillColor=none;align=center;verticalAlign=middle;whiteSpace=wrap;rounded=0;dashed=1;dashPattern=1 1;" vertex="1" parent="1">
          <mxGeometry x="290" y="1930" width="60" height="30" as="geometry" />
        </mxCell>
        <mxCell id="bjaMCamKSF5sM4Zxcl0b-16" value="主播加入" style="text;html=1;strokeColor=none;fillColor=none;align=center;verticalAlign=middle;whiteSpace=wrap;rounded=0;dashed=1;dashPattern=1 1;" vertex="1" parent="1">
          <mxGeometry x="450" y="1930" width="60" height="30" as="geometry" />
        </mxCell>
        <mxCell id="bjaMCamKSF5sM4Zxcl0b-17" value="用户B加入" style="text;html=1;strokeColor=none;fillColor=none;align=center;verticalAlign=middle;whiteSpace=wrap;rounded=0;dashed=1;dashPattern=1 1;" vertex="1" parent="1">
          <mxGeometry x="600" y="1930" width="60" height="30" as="geometry" />
        </mxCell>
        <mxCell id="bjaMCamKSF5sM4Zxcl0b-18" value="0" style="text;html=1;strokeColor=none;fillColor=none;align=center;verticalAlign=middle;whiteSpace=wrap;rounded=0;dashed=1;dashPattern=1 1;" vertex="1" parent="1">
          <mxGeometry x="290" y="1960" width="60" height="30" as="geometry" />
        </mxCell>
        <mxCell id="bjaMCamKSF5sM4Zxcl0b-19" value="20" style="text;html=1;strokeColor=none;fillColor=none;align=center;verticalAlign=middle;whiteSpace=wrap;rounded=0;dashed=1;dashPattern=1 1;" vertex="1" parent="1">
          <mxGeometry x="450" y="1960" width="60" height="30" as="geometry" />
        </mxCell>
        <mxCell id="bjaMCamKSF5sM4Zxcl0b-20" value="40" style="text;html=1;strokeColor=none;fillColor=none;align=center;verticalAlign=middle;whiteSpace=wrap;rounded=0;dashed=1;dashPattern=1 1;" vertex="1" parent="1">
          <mxGeometry x="600" y="1960" width="60" height="30" as="geometry" />
        </mxCell>
        <mxCell id="bjaMCamKSF5sM4Zxcl0b-21" value="用户A计费时间点" style="text;html=1;strokeColor=none;fillColor=none;align=center;verticalAlign=middle;whiteSpace=wrap;rounded=0;dashed=1;dashPattern=1 1;" vertex="1" parent="1">
          <mxGeometry x="450" y="1990" width="60" height="40" as="geometry" />
        </mxCell>
        <mxCell id="bjaMCamKSF5sM4Zxcl0b-22" value="用户B计费时间点" style="text;html=1;strokeColor=none;fillColor=none;align=center;verticalAlign=middle;whiteSpace=wrap;rounded=0;dashed=1;dashPattern=1 1;" vertex="1" parent="1">
          <mxGeometry x="600" y="1990" width="60" height="40" as="geometry" />
        </mxCell>
      </root>
    </mxGraphModel>
  </diagram>
</mxfile>
